# xmcd
#
# Track frame offsets: 
#        183
#        12113
#        23935
#        38233
#        52670
#        66140
#        79473
#        90403
#        103610
#        117798
#        129190
#        141140
#        154380
#        169118
#        180193
#        191968
#        204003
#        215053
#        229573
#        242813
#
# Disc length: 3433 seconds
#
# Revision: 0
# Processed by: cddbd v1.5.1PL0 Copyright (c) Steve Scherf et al.
# Submitted via: ExactAudioCopy v0.95a5
#
DISCID=020d6714
DTITLE=Ink Spots, The - Swing High Swing Low
DYEAR=1989
DGENRE=Blues
TTITLE0=Swinging' On The Strings
TTITLE1=Your Feet's Too Big
TTITLE2=Mamma Don't Allow It
TTITLE3=Swing, Gate, Swing
TTITLE4='T Ain't Nobody Biz-ness If I Do
TTITLE5=Stompin' At The Savoy
TTITLE6=Yes, Suh!
TTITLE7=Keep Away From My Doorstep
TTITLE8=Christopher Columbus
TTITLE9=Alabama Barbecue
TTITLE10=Don't Let Old Age Creep Upon You
TTITLE11=With Plenty Of Money And You
TTITLE12=Old Joe Hittin' The Jug
TTITLE13=Whoa, Baby!
TTITLE14=Let's Call The Whole Thing Off
TTITLE15=Swing High, Swing Low
TTITLE16=Slap That Bass
TTITLE17=Oh' Red
TTITLE18=That Cat Is High
TTITLE19=When The Sun Goes Down
EXTD=
EXTT0=
EXTT1=
EXTT2=
EXTT3=
EXTT4=
EXTT5=
EXTT6=
EXTT7=
EXTT8=
EXTT9=
EXTT10=
EXTT11=
EXTT12=
EXTT13=
EXTT14=
EXTT15=
EXTT16=
EXTT17=
EXTT18=
EXTT19=
PLAYORDER=
